<svg version="1.1" id="Layer_1" xmlns="http://www.w3.org/2000/svg" xmlns:xlink="http://www.w3.org/1999/xlink" x="0px" y="0px"
	 width="100%" viewBox="0 0 800 800" enable-background="new 0 0 800 800" xml:space="preserve">
<path fill="#000000" opacity="1.000000" stroke="none" 
	d="
M527.000000,801.000000 
	C351.333344,801.000000 176.166672,801.000000 1.000000,801.000000 
	C1.000000,534.333313 1.000000,267.666656 1.000000,1.000000 
	C267.666656,1.000000 534.333313,1.000000 801.000000,1.000000 
	C801.000000,267.666656 801.000000,534.333313 801.000000,801.000000 
	C709.833313,801.000000 618.666687,801.000000 527.000000,801.000000 
M483.201965,686.294006 
	C467.884613,665.935608 452.535828,645.600769 437.264740,625.207703 
	C430.805298,616.581726 422.914001,609.991089 412.443726,606.815857 
	C411.874115,606.643188 411.394958,606.172241 410.495636,605.599243 
	C422.046814,602.239136 430.500031,595.418518 437.408783,586.329956 
	C454.841888,563.396423 472.389526,540.549988 489.903229,517.677795 
	C491.032043,516.203674 492.262878,514.807556 494.041229,512.655029 
	C494.041229,528.021973 494.004974,542.326111 494.053925,556.629944 
	C494.086792,566.227722 498.912628,570.987732 508.532501,570.995850 
	C530.029907,571.013977 551.527283,571.012878 573.024658,570.996338 
	C583.040588,570.988647 588.227539,565.988342 588.229980,556.066406 
	C588.257568,442.580231 588.258789,329.094055 588.227234,215.607895 
	C588.224548,205.872879 582.335815,200.088959 572.681335,200.075165 
	C554.016907,200.048523 535.349976,200.251297 516.689148,199.993683 
	C506.650269,199.855087 499.583862,203.590851 494.969055,212.751785 
	C490.251221,222.117233 484.785553,231.105972 479.647247,240.259613 
	C479.284912,240.157257 478.922546,240.054901 478.560211,239.952545 
	C478.560211,238.190735 478.560211,236.428909 478.560211,234.667099 
	C478.560181,190.839111 478.560516,147.011124 478.558685,103.183128 
	C478.558624,101.683510 478.644196,100.173882 478.505219,98.686172 
	C478.107605,94.430908 476.020386,91.956558 471.435272,92.050972 
	C467.270874,92.136711 463.103333,92.066254 458.937164,92.067665 
	C442.152039,92.073341 433.457764,100.774834 433.444061,117.634865 
	C433.426422,139.298874 433.447662,160.962921 433.423859,182.626923 
	C433.422028,184.305771 433.197205,185.984390 433.076019,187.663132 
	C430.818207,186.427124 429.773499,184.995636 428.822815,183.504196 
	C412.012787,157.132828 394.981079,130.898209 378.545685,104.295219 
	C373.137665,95.541557 366.494446,92.074005 356.148773,91.774757 
	C339.908752,91.305023 329.945160,102.816856 330.122467,117.741089 
	C330.587646,156.897461 330.279449,196.063019 330.279449,235.224915 
	C330.279449,236.961380 330.279449,238.697830 330.279449,240.434296 
	C323.862762,230.870697 318.252838,221.163818 313.001617,211.266632 
	C308.984131,203.694794 302.827240,200.119766 294.442719,200.079865 
	C284.944092,200.034668 275.441437,200.236511 265.946991,200.032257 
	C246.699310,199.618118 220.347885,219.041901 220.424225,244.949539 
	C220.730148,348.769318 220.538422,452.590515 220.573959,556.411194 
	C220.577377,566.420166 225.317932,570.984009 235.371323,570.994690 
	C256.535370,571.017212 277.700806,570.867981 298.862854,571.075439 
	C306.075867,571.146118 311.871307,569.485168 315.439789,562.256531 
	C315.439789,564.000427 315.439789,565.744385 315.439789,567.488342 
	C315.440125,615.482483 315.431915,663.476624 315.449402,711.470764 
	C315.452271,719.382385 318.096741,722.060852 325.829437,722.076782 
	C338.327881,722.102417 350.826416,722.097778 363.324860,722.078979 
	C371.539154,722.066650 373.949554,719.634766 373.954773,711.346069 
	C373.968109,690.015320 373.959229,668.684631 373.959229,647.353882 
	C373.959229,645.590759 373.959229,643.827637 373.959229,640.566650 
	C376.165466,642.367737 377.510559,643.110657 378.377014,644.225464 
	C396.668915,667.761658 414.982483,691.281921 433.092377,714.957825 
	C436.764648,719.758789 441.186279,722.100647 447.098511,722.090759 
	C463.096497,722.064026 479.098083,722.248108 495.089081,721.912537 
	C497.624603,721.859253 501.287872,720.129150 502.290955,718.111206 
	C503.286377,716.108704 502.371552,712.222961 500.920410,710.104187 
	C495.469055,702.144653 489.456451,694.569519 483.201965,686.294006 
z"/>
<path fill="#FEFEFE" opacity="1.000000" stroke="none" 
	d="
M483.428040,686.572144 
	C489.456451,694.569519 495.469055,702.144653 500.920410,710.104187 
	C502.371552,712.222961 503.286377,716.108704 502.290955,718.111206 
	C501.287872,720.129150 497.624603,721.859253 495.089081,721.912537 
	C479.098083,722.248108 463.096497,722.064026 447.098511,722.090759 
	C441.186279,722.100647 436.764648,719.758789 433.092377,714.957825 
	C414.982483,691.281921 396.668915,667.761658 378.377014,644.225464 
	C377.510559,643.110657 376.165466,642.367737 373.959229,640.566650 
	C373.959229,643.827637 373.959229,645.590759 373.959229,647.353882 
	C373.959229,668.684631 373.968109,690.015320 373.954773,711.346069 
	C373.949554,719.634766 371.539154,722.066650 363.324860,722.078979 
	C350.826416,722.097778 338.327881,722.102417 325.829437,722.076782 
	C318.096741,722.060852 315.452271,719.382385 315.449402,711.470764 
	C315.431915,663.476624 315.440125,615.482483 315.439789,567.488342 
	C315.439789,565.744385 315.439789,564.000427 315.439789,562.256531 
	C311.871307,569.485168 306.075867,571.146118 298.862854,571.075439 
	C277.700806,570.867981 256.535370,571.017212 235.371323,570.994690 
	C225.317932,570.984009 220.577377,566.420166 220.573959,556.411194 
	C220.538422,452.590515 220.730148,348.769318 220.424225,244.949539 
	C220.347885,219.041901 246.699310,199.618118 265.946991,200.032257 
	C275.441437,200.236511 284.944092,200.034668 294.442719,200.079865 
	C302.827240,200.119766 308.984131,203.694794 313.001617,211.266632 
	C318.252838,221.163818 323.862762,230.870697 330.279449,240.434296 
	C330.279449,238.697830 330.279449,236.961380 330.279449,235.224915 
	C330.279449,196.063019 330.587646,156.897461 330.122467,117.741089 
	C329.945160,102.816856 339.908752,91.305023 356.148773,91.774757 
	C366.494446,92.074005 373.137665,95.541557 378.545685,104.295219 
	C394.981079,130.898209 412.012787,157.132828 428.822815,183.504196 
	C429.773499,184.995636 430.818207,186.427124 433.076019,187.663132 
	C433.197205,185.984390 433.422028,184.305771 433.423859,182.626923 
	C433.447662,160.962921 433.426422,139.298874 433.444061,117.634865 
	C433.457764,100.774834 442.152039,92.073341 458.937164,92.067665 
	C463.103333,92.066254 467.270874,92.136711 471.435272,92.050972 
	C476.020386,91.956558 478.107605,94.430908 478.505219,98.686172 
	C478.644196,100.173882 478.558624,101.683510 478.558685,103.183128 
	C478.560516,147.011124 478.560181,190.839111 478.560211,234.667099 
	C478.560211,236.428909 478.560211,238.190735 478.560211,239.952545 
	C478.922546,240.054901 479.284912,240.157257 479.647247,240.259613 
	C484.785553,231.105972 490.251221,222.117233 494.969055,212.751785 
	C499.583862,203.590851 506.650269,199.855087 516.689148,199.993683 
	C535.349976,200.251297 554.016907,200.048523 572.681335,200.075165 
	C582.335815,200.088959 588.224548,205.872879 588.227234,215.607895 
	C588.258789,329.094055 588.257568,442.580231 588.229980,556.066406 
	C588.227539,565.988342 583.040588,570.988647 573.024658,570.996338 
	C551.527283,571.012878 530.029907,571.013977 508.532501,570.995850 
	C498.912628,570.987732 494.086792,566.227722 494.053925,556.629944 
	C494.004974,542.326111 494.041229,528.021973 494.041229,512.655029 
	C492.262878,514.807556 491.032043,516.203674 489.903229,517.677795 
	C472.389526,540.549988 454.841888,563.396423 437.408783,586.329956 
	C430.500031,595.418518 422.046814,602.239136 410.495636,605.599243 
	C411.394958,606.172241 411.874115,606.643188 412.443726,606.815857 
	C422.914001,609.991089 430.805298,616.581726 437.264740,625.207703 
	C452.535828,645.600769 467.884613,665.935608 483.428040,686.572144 
M416.528717,522.031311 
	C420.643402,516.794495 425.017639,511.737152 428.798889,506.269714 
	C432.491577,500.930298 437.187988,498.830170 443.605438,498.920715 
	C460.335327,499.156799 477.070740,499.000183 494.042755,499.000183 
	C494.042755,497.029816 494.042786,495.381622 494.042786,493.733398 
	C494.042786,456.083160 494.084869,418.432770 493.946777,380.783051 
	C493.937714,378.305573 492.552277,375.833130 491.807007,373.358337 
	C490.128967,375.188660 488.004395,376.772919 486.840088,378.886261 
	C470.162109,409.158356 453.564545,439.475159 437.065979,469.845490 
	C432.498322,478.253662 425.942230,482.700623 416.141571,482.300446 
	C409.156281,482.015228 402.114349,481.794983 395.160858,482.344635 
	C383.022308,483.304138 375.373383,477.526428 369.935944,467.366821 
	C359.116608,447.151215 348.126892,427.026825 337.215698,406.860382 
	C331.761169,396.779144 326.384338,386.654877 320.809662,376.640686 
	C320.048889,375.273956 318.341431,374.434265 317.072266,373.350555 
	C316.348572,374.990540 315.620422,376.628601 314.909241,378.274017 
	C314.848572,378.414398 314.901215,378.603729 314.901215,378.770325 
	C314.901215,425.583221 314.898621,472.396149 314.913208,519.209045 
	C314.913666,520.655640 315.092041,522.102173 315.187469,523.548767 
	C318.637329,507.296570 328.572754,499.014832 344.988953,499.001099 
	C351.152924,498.995941 357.316925,498.995941 363.480896,499.001373 
	C371.842407,499.008728 373.944397,501.139709 373.951538,509.728943 
	C373.967560,529.053833 373.956970,548.378784 373.957245,567.703674 
	C373.957245,569.445496 373.957245,571.187378 373.957245,572.929199 
	C374.567596,573.228455 375.177948,573.527710 375.788300,573.826904 
	C389.221313,556.748962 402.654358,539.670959 416.528717,522.031311 
M452.780670,288.282593 
	C456.193085,282.126526 459.605530,275.970459 463.283173,269.335907 
	C456.566040,269.335907 450.750061,269.204834 444.942963,269.375824 
	C439.954559,269.522736 436.650635,267.530823 433.893158,263.269653 
	C416.098541,235.771240 398.094452,208.408340 380.135925,181.016174 
	C379.219482,179.618317 378.090179,178.360031 377.059967,177.036758 
	C376.612091,177.192627 376.164185,177.348495 375.716278,177.504364 
	C375.716278,179.240311 375.716278,180.976273 375.716278,182.712219 
	C375.716217,208.358261 375.720673,234.004318 375.713501,259.650360 
	C375.711212,267.862427 374.294617,269.305023 366.202576,269.331604 
	C359.483124,269.353699 352.763550,269.336151 345.959869,269.336151 
	C346.105682,270.369415 346.062164,270.736359 346.207916,270.997833 
	C364.407715,303.643799 382.601318,336.293274 400.858459,368.907166 
	C403.316986,373.299011 405.194275,373.026459 408.011841,368.007416 
	C422.811920,341.644012 437.588043,315.267242 452.780670,288.282593 
z"/>
<path fill="#010101" opacity="1.000000" stroke="none" 
	d="
M416.308044,522.312134 
	C402.654358,539.670959 389.221313,556.748962 375.788300,573.826904 
	C375.177948,573.527710 374.567596,573.228455 373.957245,572.929199 
	C373.957245,571.187378 373.957245,569.445496 373.957245,567.703674 
	C373.956970,548.378784 373.967560,529.053833 373.951538,509.728943 
	C373.944397,501.139709 371.842407,499.008728 363.480896,499.001373 
	C357.316925,498.995941 351.152924,498.995941 344.988953,499.001099 
	C328.572754,499.014832 318.637329,507.296570 315.187469,523.548767 
	C315.092041,522.102173 314.913666,520.655640 314.913208,519.209045 
	C314.898621,472.396149 314.901215,425.583221 314.901215,378.770325 
	C314.901215,378.603729 314.848572,378.414398 314.909241,378.274017 
	C315.620422,376.628601 316.348572,374.990540 317.072266,373.350555 
	C318.341431,374.434265 320.048889,375.273956 320.809662,376.640686 
	C326.384338,386.654877 331.761169,396.779144 337.215698,406.860382 
	C348.126892,427.026825 359.116608,447.151215 369.935944,467.366821 
	C375.373383,477.526428 383.022308,483.304138 395.160858,482.344635 
	C402.114349,481.794983 409.156281,482.015228 416.141571,482.300446 
	C425.942230,482.700623 432.498322,478.253662 437.065979,469.845490 
	C453.564545,439.475159 470.162109,409.158356 486.840088,378.886261 
	C488.004395,376.772919 490.128967,375.188660 491.807007,373.358337 
	C492.552277,375.833130 493.937714,378.305573 493.946777,380.783051 
	C494.084869,418.432770 494.042786,456.083160 494.042786,493.733398 
	C494.042786,495.381622 494.042755,497.029816 494.042755,499.000183 
	C477.070740,499.000183 460.335327,499.156799 443.605438,498.920715 
	C437.187988,498.830170 432.491577,500.930298 428.798889,506.269714 
	C425.017639,511.737152 420.643402,516.794495 416.308044,522.312134 
z"/>
<path fill="#020202" opacity="1.000000" stroke="none" 
	d="
M452.576599,288.588867 
	C437.588043,315.267242 422.811920,341.644012 408.011841,368.007416 
	C405.194275,373.026459 403.316986,373.299011 400.858459,368.907166 
	C382.601318,336.293274 364.407715,303.643799 346.207916,270.997833 
	C346.062164,270.736359 346.105682,270.369415 345.959869,269.336151 
	C352.763550,269.336151 359.483124,269.353699 366.202576,269.331604 
	C374.294617,269.305023 375.711212,267.862427 375.713501,259.650360 
	C375.720673,234.004318 375.716217,208.358261 375.716278,182.712219 
	C375.716278,180.976273 375.716278,179.240311 375.716278,177.504364 
	C376.164185,177.348495 376.612091,177.192627 377.059967,177.036758 
	C378.090179,178.360031 379.219482,179.618317 380.135925,181.016174 
	C398.094452,208.408340 416.098541,235.771240 433.893158,263.269653 
	C436.650635,267.530823 439.954559,269.522736 444.942963,269.375824 
	C450.750061,269.204834 456.566040,269.335907 463.283173,269.335907 
	C459.605530,275.970459 456.193085,282.126526 452.576599,288.588867 
z"/>
</svg>